<?xml version="1.0" encoding="utf-8"?>
<!-- Generator: Adobe Illustrator 15.0.0, SVG Export Plug-In . SVG Version: 6.00 Build 0)  -->
<!DOCTYPE svg PUBLIC "-//W3C//DTD SVG 1.1//EN" "http://www.w3.org/Graphics/SVG/1.1/DTD/svg11.dtd">
<svg version="1.1" id="图层_1" zoomAndPan="disable"
	 xmlns="http://www.w3.org/2000/svg" xmlns:xlink="http://www.w3.org/1999/xlink" x="0px" y="0px" width="500px" height="500px"
	 viewBox="0 0 500 500" enable-background="new 0 0 500 500" xml:space="preserve">
<g>
	<polyline fill="none" points="80,500 0,420 0,360 140,500 200,500 0,300 0,240 260,500 320,500 0,180 0,120 380,500 440,500 0,60 
		0,0 500,500 	"/>
</g>
<g>
	<polyline fill="none" points="0,81 80,1 140,1 0,141 0,201 200,1 260,1 0,261 0,321 320,1 380,1 0,381 0,441 440,1 500,1 0,501 	
		"/>
</g>
</svg>
